<svg width="20" height="20" viewBox="0 0 20 20" fill="none" xmlns="http://www.w3.org/2000/svg">
<rect width="20" height="20" fill="white"/>
<path d="M10.8664 1.15977C10.774 1.06025 10.645 1.0026 10.5093 1.00009C10.3735 0.997572 10.2425 1.05041 10.1464 1.14645L3.14645 8.14645C2.95118 8.34171 2.95118 8.65829 3.14645 8.85355C3.34171 9.04882 3.65829 9.04882 3.85355 8.85355L10.4867 2.22044L16.6336 8.84023C16.8215 9.04258 17.1379 9.0543 17.3402 8.8664C17.5426 8.6785 17.5543 8.36213 17.3664 8.15977L10.8664 1.15977Z" fill="#2D2D2D"/>
<path fill-rule="evenodd" clip-rule="evenodd" d="M5.5 8.5H15.5V18.5H5.5V8.5ZM6.5 9.5H14.5V17.5H6.5V9.5Z" fill="#2D2D2D"/>
</svg>
